<svg xmlns="http://www.w3.org/2000/svg" viewBox="0 0 500 500"><defs><style>.cls-1,.cls-2,.cls-4{fill:none;}.cls-1,.cls-2{stroke:#fff;stroke-width:7.63px;}.cls-1{stroke-miterlimit:10;}.cls-2{stroke-linejoin:bevel;}.cls-3{fill:#fff;}</style></defs><title>Asset 1</title><g id="Layer_2" data-name="Layer 2"><g id="Layer_1-2" data-name="Layer 1"><path class="cls-1" d="M343.62,63.28,184.16,12.94A46.23,46.23,0,0,0,124,57V367.64l154.26,48.7c67.28,21.24,135.81-29,135.81-99.54V159.41A100.81,100.81,0,0,0,343.62,63.28Z"/><path class="cls-2" d="M124,367.64l154.26,48.7c67.28,21.24,135.81-29,135.81-99.54h0Z"/><path class="cls-3" d="M85.92,155v41.44L145,186.08l191.26-33.52V304.44a71.46,71.46,0,0,1-59.13,70.39L145,398,85.92,408.35v80.89l217.25-38.18A134.13,134.13,0,0,0,414.08,319V155.18a81.69,81.69,0,0,0-95.84-80.46l-193.45,34A47,47,0,0,0,85.92,155Z"/><rect class="cls-4" width="500" height="500"/></g></g></svg>