<svg xmlns="http://www.w3.org/2000/svg" xmlns:xlink="http://www.w3.org/1999/xlink" viewBox="0 0 500 500"><defs><style>.cls-1{fill:url(#linear-gradient);}.cls-2{fill:#ffec00;}.cls-3{fill:url(#linear-gradient-2);}.cls-4{fill:none;}</style><linearGradient id="linear-gradient" x1="89.44" y1="272.66" x2="418.22" y2="152.99" gradientUnits="userSpaceOnUse"><stop offset="0.21" stop-color="#ffab00"/><stop offset="0.58" stop-color="#fdd000"/><stop offset="0.81" stop-color="#fce200"/></linearGradient><linearGradient id="linear-gradient-2" x1="96.41" y1="124.29" x2="354.32" y2="431.65" gradientUnits="userSpaceOnUse"><stop offset="0.11" stop-color="#1b53b5"/><stop offset="0.38" stop-color="#184ba9"/><stop offset="0.87" stop-color="#103689"/><stop offset="1" stop-color="#0d2f7f"/></linearGradient></defs><title>Dana-Color</title><g id="Layer_2" data-name="Layer 2"><g id="Layer_1-2" data-name="Layer 1"><path class="cls-1" d="M343.62,63.28,184.16,12.94A46.23,46.23,0,0,0,124,57V367.64l154.26,48.7c67.28,21.24,135.81-29,135.81-99.54V159.41A100.81,100.81,0,0,0,343.62,63.28Z"/><path class="cls-2" d="M124,367.64l154.26,48.7c67.28,21.24,135.81-29,135.81-99.54h0Z"/><path class="cls-3" d="M85.92,155v41.44L145,186.08l191.26-33.52V304.44a71.46,71.46,0,0,1-59.13,70.39L145,398,85.92,408.35v80.89l217.25-38.18A134.13,134.13,0,0,0,414.08,319V155.18a81.69,81.69,0,0,0-95.84-80.46l-193.45,34A47,47,0,0,0,85.92,155Z"/><rect class="cls-4" width="500" height="500"/></g></g></svg>