<svg xmlns="http://www.w3.org/2000/svg" viewBox="0 0 1000 1000"><defs><style>.cls-1{fill:#fff;}.cls-2{fill:none;}</style></defs><title>Layer 2</title><g id="Layer_2" data-name="Layer 2"><g id="Layer_1-2" data-name="Layer 1"><g id="Layer_2-2" data-name="Layer 2"><g id="Layer_1-2-2" data-name="Layer 1-2"><path class="cls-1" d="M901,181.2H745.57a7.08,7.08,0,0,0-7.09,7.09h0v79.13a7.1,7.1,0,0,0,7,7.08H911.38a14.18,14.18,0,0,1,14.19,14.17h0V513.61a113.53,113.53,0,0,1-52.89,96L761.35,679.88a102.44,102.44,0,0,1-103.91,3.22L511.1,602.92a7.69,7.69,0,0,0-10.44,3c-.06.1-.11.2-.16.3l-47.18,95.4a7.68,7.68,0,0,0,3.18,10.13l147.85,81.54a204.85,204.85,0,0,0,208.3-6.18l89.79-56.65A198.63,198.63,0,0,0,995,562.5V275.18A94,94,0,0,0,901,181.2Z"/><path class="cls-1" d="M496.82,566.65c15.37-13.78,11-25.11-9.66-25.08l-191.66.24a14.4,14.4,0,0,0-11.89,22.5L390.7,721.86c10.81,15.9,22.41,13.42,26.06-5.46C427.81,659.35,457.32,602.07,496.82,566.65Z"/><path class="cls-1" d="M446.5,456.5h98.9a54.29,54.29,0,0,0,34.21-12,54.34,54.34,0,0,0,34.22,12H642.5a54.32,54.32,0,0,0,37.23-14.72,63.9,63.9,0,0,0,40.86,14.72h83.54a54.5,54.5,0,0,0,54.5-54.5V373.12a54.5,54.5,0,0,0-54.49-54.51H741.57A4.6,4.6,0,0,0,737,323.2v31.36a4.6,4.6,0,0,0,4.59,4.61h62.57a14,14,0,0,1,14,14v28.89a14,14,0,0,1-14,14H710.79A13.82,13.82,0,0,1,697,402.24h0v-.11h0V363.78a4.6,4.6,0,0,0-4.61-4.61H661a4.6,4.6,0,0,0-4.61,4.59v0h0V416H599.89v-52.2a4.6,4.6,0,0,0-4.59-4.61H563.94a4.6,4.6,0,0,0-4.61,4.61V416H432.55v-52.2a4.6,4.6,0,0,0-4.59-4.61H396.6a4.6,4.6,0,0,0-4.61,4.61V402A54.49,54.49,0,0,0,446.5,456.5Z"/><path class="cls-1" d="M628.15,475.5H596.5a4.62,4.62,0,0,0-4.61,4.6v27a4.62,4.62,0,0,0,4.61,4.6h63.22a4.6,4.6,0,0,0,4.61-4.59h0v-27a4.6,4.6,0,0,0-4.6-4.6H628.15Z"/><rect class="cls-1" x="727.61" y="475.45" width="36.22" height="36.22" rx="4.61"/><rect class="cls-1" x="477.83" y="475.45" width="36.22" height="36.22" rx="4.61"/><rect class="cls-1" x="248.06" y="475.45" width="36.22" height="36.22" rx="4.61"/><path class="cls-1" d="M113.38,359.17a4.6,4.6,0,0,0,4.61-4.59v-27A4.6,4.6,0,0,0,113.4,323H50.16a4.6,4.6,0,0,0-4.6,4.6h0v31.61Z"/><path class="cls-1" d="M313.06,456.5a54.5,54.5,0,0,0,54.5-54.5V373.11a54.5,54.5,0,0,0-54.5-54.5H264.55a4.6,4.6,0,0,0-4.61,4.59v31.36a4.6,4.6,0,0,0,4.59,4.61h48.52a14,14,0,0,1,13.95,14v28.89a14,14,0,0,1-13.95,14H226.72a13.82,13.82,0,0,1-13.82-13.82h0V363.78h0a4.6,4.6,0,0,0-4.61-4.61H177a4.6,4.6,0,0,0-4.61,4.61V416H45.56V359.17H9.61A4.6,4.6,0,0,0,5,363.76V402A54.5,54.5,0,0,0,59.5,456.5h98.9a54.32,54.32,0,0,0,37.23-14.72A63.89,63.89,0,0,0,236.5,456.5Z"/><rect class="cls-2" width="1000" height="1000"/></g></g></g></g></svg>