<svg xmlns="http://www.w3.org/2000/svg" xmlns:xlink="http://www.w3.org/1999/xlink" viewBox="0 0 1000 1000"><defs><style>.cls-1{fill:none;}.cls-2{fill:url(#linear-gradient);}.cls-3{fill:url(#linear-gradient-2);}.cls-4{fill:#0f3f93;}</style><linearGradient id="linear-gradient" x1="629.64" y1="811.74" x2="976.82" y2="210.41" gradientUnits="userSpaceOnUse"><stop offset="0.08" stop-color="#2d8c00"/><stop offset="0.16" stop-color="#389700"/><stop offset="0.51" stop-color="#66c500"/><stop offset="0.9" stop-color="#b4dd00"/></linearGradient><linearGradient id="linear-gradient-2" x1="273.14" y1="541.49" x2="448" y2="641.76" gradientTransform="translate(14.95 0.65) rotate(0.17)" gradientUnits="userSpaceOnUse"><stop offset="0.27" stop-color="#ffe400"/><stop offset="0.65" stop-color="#fc0"/></linearGradient></defs><title>JibJet FA</title><g id="Layer_2" data-name="Layer 2"><g id="Layer_1-2" data-name="Layer 1"><rect class="cls-1" width="1000" height="1000"/><path class="cls-2" d="M925.57,288.7V513.61a113.52,113.52,0,0,1-52.89,96L761.35,679.88a102.44,102.44,0,0,1-103.91,3.22L511.1,602.92a7.69,7.69,0,0,0-10.58,3.34l-47.18,95.4a7.68,7.68,0,0,0,3.18,10.13l147.85,81.54a204.85,204.85,0,0,0,208.3-6.18l89.77-56.69A198.62,198.62,0,0,0,995,562.53V275.18a94,94,0,0,0-94-94H745.57a7.08,7.08,0,0,0-7.09,7.09l0,79.13a7.09,7.09,0,0,0,7.09,7.1H911.38A14.18,14.18,0,0,1,925.57,288.7Z"/><path class="cls-3" d="M496.82,566.65c-39.5,35.42-69,92.7-80.06,149.75-3.65,18.88-15.25,21.36-26.06,5.46L283.56,564.31a14.4,14.4,0,0,1,11.89-22.5l191.71-.24C507.8,541.54,512.19,552.87,496.82,566.65Z"/><path class="cls-4" d="M642.47,456.54H613.83a54.5,54.5,0,0,1-54.5-54.5V363.78a4.61,4.61,0,0,1,4.61-4.61h31.34a4.6,4.6,0,0,1,4.61,4.61V416h56.52v-52.2a4.61,4.61,0,0,1,4.61-4.61h31.34a4.6,4.6,0,0,1,4.61,4.61V402A54.5,54.5,0,0,1,642.47,456.54Z"/><path class="cls-4" d="M545.39,456.54h-98.9A54.5,54.5,0,0,1,392,402V363.78a4.61,4.61,0,0,1,4.61-4.61h31.34a4.6,4.6,0,0,1,4.61,4.61V416H559.33v-52.2a4.61,4.61,0,0,1,4.61-4.61h31.34a4.6,4.6,0,0,1,4.61,4.61V402A54.5,54.5,0,0,1,545.39,456.54Z"/><path class="cls-4" d="M804.13,318.61H741.57a4.6,4.6,0,0,0-4.61,4.61v31.34a4.6,4.6,0,0,0,4.61,4.61h62.55a14,14,0,0,1,14,14V402a14,14,0,0,1-14,14H710.79A13.82,13.82,0,0,1,697,402.16V363.78a4.6,4.6,0,0,0-4.61-4.61H661a4.6,4.6,0,0,0-4.61,4.61v28.58a64.19,64.19,0,0,0,64.18,64.18h83.54a54.5,54.5,0,0,0,54.5-54.5V373.12A54.5,54.5,0,0,0,804.13,318.61Z"/><path class="cls-4" d="M596.54,475.45h31.61a0,0,0,0,1,0,0v36.22a0,0,0,0,1,0,0H596.54a4.61,4.61,0,0,1-4.61-4.61v-27A4.61,4.61,0,0,1,596.54,475.45Z"/><path class="cls-4" d="M618.24,475.45h41.52a4.61,4.61,0,0,1,4.61,4.61v27a4.61,4.61,0,0,1-4.61,4.61H618.24a0,0,0,0,1,0,0V475.45A0,0,0,0,1,618.24,475.45Z"/><rect class="cls-4" x="727.61" y="475.45" width="36.22" height="36.22" rx="4.61"/><rect class="cls-4" x="477.83" y="475.45" width="36.22" height="36.22" rx="4.61"/><rect class="cls-4" x="248.06" y="475.45" width="36.22" height="36.22" rx="4.61"/><path class="cls-4" d="M50.16,323H81.77a0,0,0,0,1,0,0v36.22a0,0,0,0,1,0,0H45.56a0,0,0,0,1,0,0V327.56A4.61,4.61,0,0,1,50.16,323Z"/><path class="cls-4" d="M81.77,323h31.61a4.61,4.61,0,0,1,4.61,4.61v27a4.61,4.61,0,0,1-4.61,4.61H81.77a0,0,0,0,1,0,0V323A0,0,0,0,1,81.77,323Z"/><path class="cls-4" d="M158.4,456.54H59.5A54.5,54.5,0,0,1,5,402V363.78a4.6,4.6,0,0,1,4.61-4.61h36V416H172.34v-52.2a4.6,4.6,0,0,1,4.61-4.61h31.34a4.61,4.61,0,0,1,4.61,4.61V402A54.5,54.5,0,0,1,158.4,456.54Z"/><path class="cls-4" d="M313.06,318.61H264.55a4.6,4.6,0,0,0-4.61,4.61v31.34a4.6,4.6,0,0,0,4.61,4.61h48.5a14,14,0,0,1,13.95,14V402a14,14,0,0,1-13.95,14H226.72a13.82,13.82,0,0,1-13.82-13.82V363.78a4.61,4.61,0,0,0-4.61-4.61H177a4.6,4.6,0,0,0-4.61,4.61v28.58a64.18,64.18,0,0,0,64.18,64.18h76.54a54.5,54.5,0,0,0,54.5-54.5V373.11A54.5,54.5,0,0,0,313.06,318.61Z"/></g></g></svg>