<svg xmlns="http://www.w3.org/2000/svg" viewBox="0 0 1999.56 1999.56"><defs><style>.cls-1,.cls-2{fill:#fff;}.cls-1{opacity:0.5;}.cls-3{opacity:0.3;}.cls-4{fill:none;}</style></defs><title>Mibini Monochrom</title><g id="Layer_2" data-name="Layer 2"><g id="Layer_1-2" data-name="Layer 1"><g id="Layer_2-2" data-name="Layer 2"><g id="Layer_1-2-2" data-name="Layer 1-2"><path class="cls-1" d="M795.49,1570.32c-39.68,71.62-89,120.4-135.71,123.09a55.7,55.7,0,0,1-5.63.28c-39,0-73.77-24.18-89.63-62.76C526,1537.2,502,1364.15,481,1098.74c-11.72,28.16-33.47,322.74-370.23,358.79V1191.14C281.93,1177.43,403.66,1110,481,986.07a548.39,548.39,0,0,0,41.67-81.78c42.06,323.52,75.88,557.46,112.32,646,15,36.44,47.84,59.29,84.7,59.29a47,47,0,0,0,5.31-.2c32.38-1.91,54.68-19,70.3-39Z"/><path class="cls-1" d="M1850.84,882.11v42a456.85,456.85,0,0,1-76.12,164c-56.35,75.64-165.7,165.47-364.64,165.47-158.95,0-429.59-75.45-552.15,172.85,1.84-5.62,3.91-11.48,5.67-17.5,27.34-85.91,59.16-199.68,89.82-309.69,14.49-51.79,31.67-113.26,48.66-172.19a507.92,507.92,0,0,0,55.5,92.52c86.66,113.84,216.9,174,376.63,174,188.13,0,291.23-85.06,344.65-156.41a431,431,0,0,0,72-155.2Z"/><path class="cls-2" d="M1498.57,659c50.19,98.34,17.19,210.58-144.77,221.17-111.18,7.3-181-34.72-225.14-91.08-11.52-39.91-17.66-79-20.86-111.57-5.58-57.14-31-82.84-54.24-94.32v0c-.94-7.57-1.57-14.14-2.11-19.49-8.52-87.09-63.08-101.15-86.12-103.18-68.65-6-100.17,58.94-108,84.83-50.5,166.8-130.71,233.31-183.71,219.91-12.34-95.68-23.9-184.45-34-250.72-6.21-41.05-11.44-71.39-16.13-92.8a288.32,288.32,0,0,0-9.29-34.32c-9.33-26.05-24.88-42.73-42-52.45-1.84-10.28-3.63-19.22-5.31-26.91a290.43,290.43,0,0,0-9.3-34.33c-17.34-48.27-55.92-64.48-86.62-63.58-50.77,1.52-76.94,42-83.93,76.35a302.39,302.39,0,0,0-4.84,40.26C355.9,709.57,292.47,716.09,110.8,730.31V204.25C110.8,50.26,277.52-46,410.92,31l688.91,397.76,598.5,345.51Z"/><path class="cls-2" d="M1788.67,1173l-688.84,397.8L410.89,1968.55c-133.41,77-300.09-19.26-300.09-173.28V1457.53C447.52,1421.44,469.27,1126.9,481,1098.74c21.05,265.41,45,438.46,83.53,532.19,15.86,38.58,50.58,62.76,89.63,62.76a53.06,53.06,0,0,0,5.63-.28c46.63-2.69,95.87-51.31,135.51-122.74,14.1-17.85,22.81-37.92,28.59-51.12,9.88-22.81,21.13-53.23,34-92.8a6.68,6.68,0,0,1,.28-.78s0-.07,0-.07c122.67-247.61,393-172.27,551.83-172.27,198.94,0,308.29-89.83,364.64-165.32,36.13-48.19,67.1-117.51,83-195.89a0,0,0,0,1,0,0C1915.59,983.22,1892.55,1113,1788.67,1173Z"/><g class="cls-3"><rect class="cls-2" x="110.76" y="1191.14" width="0.04" height="266.39"/><path class="cls-2" d="M795.49,1570.32c-.08.11-.12.23-.2.35-8.78,11.09-19.68,21.36-33.27,28.51,13.63-7.27,24.52-17.58,33.31-28.86Z"/><path class="cls-2" d="M1857.71,892.19v.11a.15.15,0,0,1,0,.12c-2.1-3.44-4.45-6.8-6.83-10.15a431.17,431.17,0,0,1-72,155.2c-53.42,71.35-156.52,156.41-344.65,156.41-159.73,0-290-60.15-376.63-174a508.14,508.14,0,0,1-55.5-92.52c-17,58.93-34.17,120.41-48.66,172.19-30.66,110-62.48,223.78-89.82,309.7-1.68,5.7-3.63,11.28-5.35,16.64,0,0,0,0,0,.07a3.22,3.22,0,0,0-.28.51c1.84-5.62,3.91-11.48,5.67-17.5,27.34-85.91,59.16-199.68,89.82-309.69,14.49-51.79,31.67-113.26,48.66-172.19a508.81,508.81,0,0,0,55.5,92.56c86.66,113.8,216.9,173.94,376.63,173.94,188.13,0,291.23-85.06,344.65-156.41a430.78,430.78,0,0,0,72-155.2C1853.22,885.35,1855.57,888.75,1857.71,892.19Z"/></g><g class="cls-3"><path class="cls-2" d="M572.41,335.16l-.11.2c0-.08,0-.2,0-.28A.28.28,0,0,1,572.41,335.16Z"/></g><rect class="cls-4" width="1999.56" height="1999.56"/></g></g><path class="cls-1" d="M572.41,335.16a86,86,0,0,0-44.95-11.33c-50.77,1.53-76.93,42-83.93,76.35a317,317,0,0,0-4.84,40.27c-28.9,420.18-102.48,561.63-328,582.88v-293c181.8-14.22,245.26-20.62,271.58-403.59a302.79,302.79,0,0,1,4.84-40.26c7-34.33,33.16-74.83,83.93-76.35,30.7-.9,69.28,15.31,86.62,63.58a286.63,286.63,0,0,1,9.3,34.33c1.71,7.81,3.51,16.87,5.39,27.34Z"/><path class="cls-1" d="M1051.45,563.7c.54,5.35,1.17,11.95,2.11,19.53a90.63,90.63,0,0,0-31.87-8.87c-68.66-6-97.25,59.95-108,84.83-10.35,23.82-22.3,57.25-36.55,102.09-25.42,79.86-54.32,183.55-84.94,293.17-15.62,56.67-34.6,124.23-53.31,188.44-21.83-139.38-43.7-309-60.73-441.31-1.56-12.18-3.16-24.37-4.69-36.36,53,13.55,133.33-52.92,183.87-219.87,7.81-25.89,39.33-90.84,108-84.83,23,2,77.6,16.09,86.12,103.18Z"/><path class="cls-1" d="M1698.33,774.28c-3.08,57.49-19.52,117.44-53.46,162.78-44.33,59.2-115.21,89.28-210.66,89.28-108.49,0-188.16-35.35-243.46-108-29.68-39.05-49.25-84.67-62.09-129.27,44.13,56.36,114,98.38,225.14,91.08,162-10.59,195-122.83,144.77-221.17Z"/></g></g></svg>