<svg xmlns="http://www.w3.org/2000/svg" viewBox="0 0 512 512"><defs><style>.cls-1{fill:#c31718;}.cls-2{fill:#fac000;}.cls-3{opacity:0.3;}.cls-4{fill:#fff;}.cls-5{fill:none;}</style></defs><title>Mibini Logo</title><g id="Layer_2" data-name="Layer 2"><g id="Layer_1-2" data-name="Layer 1"><path class="cls-1" d="M203.69,402.09c-10.16,18.34-22.79,30.83-34.75,31.52a13.88,13.88,0,0,1-1.44.07c-10,0-18.89-6.19-22.95-16.07-9.87-24-16-68.31-21.39-136.27-3,7.21-8.57,82.64-94.8,91.87V305c43.83-3.51,75-20.79,94.81-52.51a140.4,140.4,0,0,0,10.67-20.94c10.77,82.84,19.43,142.74,28.76,165.41,3.83,9.33,12.25,15.18,21.69,15.18.45,0,.91,0,1.36-.05,8.29-.49,14-4.87,18-10"/><path class="cls-1" d="M473.92,225.87v10.76a116.94,116.94,0,0,1-19.49,42C440,298,412,321,361.06,321c-40.7,0-110-19.32-141.38,44.26.47-1.44,1-2.94,1.45-4.48,7-22,15.15-51.13,23-79.3,3.71-13.26,8.11-29,12.46-44.09a130,130,0,0,0,14.21,23.69c22.19,29.15,55.54,44.55,96.44,44.55,48.17,0,74.57-21.78,88.25-40.05a110.37,110.37,0,0,0,18.43-39.74"/><path class="cls-2" d="M434.87,198.26c-.79,14.72-5,30.07-13.68,41.68-11.36,15.16-29.51,22.86-53.95,22.86-27.78,0-48.17-9.05-62.34-27.65-14.4-18.93-19.5-44-21.24-61.67-2.18-22.3-16.14-25.9-22-26.42C244,145.52,236.71,162.41,234,168.78c-2.65,6.1-5.71,14.66-9.37,26.14-6.5,20.45-13.9,47-21.74,75.07-4,14.5-8.86,31.81-13.65,48.25-5.6-35.69-11.19-79.12-15.55-113-3.61-28-7-54.4-9.9-73.5-1.59-10.51-2.93-18.28-4.13-23.76a73.29,73.29,0,0,0-2.38-8.79c-4.44-12.36-14.32-16.51-22.19-16.28-13,.39-19.7,10.76-21.49,19.55a79.05,79.05,0,0,0-1.23,10.31c-7.4,107.59-26.24,143.81-84,149.25V52.3c0-39.43,42.69-64.07,76.85-44.36l176.4,101.85Z"/><path class="cls-1" d="M458,300.36,281.62,402.22,105.21,504.06c-34.16,19.72-76.84-4.93-76.84-44.37V305c43.82-3.51,74.94-20.79,94.8-52.51a140.4,140.4,0,0,0,10.67-20.94c10.77,82.84,19.43,142.74,28.76,165.41,3.83,9.34,12.25,15.18,21.69,15.18.45,0,.91,0,1.36-.05,15.71-.92,22.2-15.85,25.31-23,2.53-5.84,5.41-13.63,8.72-23.76.47-1.44,1-2.94,1.45-4.48,7-22,15.15-51.13,23-79.3,3.71-13.26,8.11-29,12.46-44.09a130,130,0,0,0,14.21,23.69c22.19,29.15,55.54,44.55,96.44,44.55,48.17,0,74.57-21.78,88.25-40.05a110.37,110.37,0,0,0,18.43-39.74c.61.86,1.21,1.73,1.76,2.61C490.5,251.76,484.6,285,458,300.36"/><g class="cls-3"><path class="cls-4" d="M203.69,402.09c-10.16,18.34-22.79,30.83-34.75,31.52a13.88,13.88,0,0,1-1.44.07c-10,0-18.89-6.19-22.95-16.07-9.87-24-16-68.31-21.39-136.27-3,7.21-8.57,82.64-94.8,91.87V305c43.83-3.51,75-20.79,94.81-52.51a140.4,140.4,0,0,0,10.67-20.94c10.77,82.84,19.43,142.74,28.76,165.41,3.83,9.33,12.25,15.18,21.69,15.18.45,0,.91,0,1.36-.05,8.29-.49,14-4.87,18-10"/><path class="cls-4" d="M475.68,228.48c-4.06,20.08-12,37.84-21.25,50.19C440,298,412,321,361.06,321c-40.7,0-110-19.32-141.38,44.26.47-1.44,1-2.94,1.45-4.48,7-22,15.15-51.13,23-79.3,3.71-13.26,8.11-29,12.46-44.09a130.42,130.42,0,0,0,14.21,23.7c22.19,29.14,55.54,44.54,96.44,44.54,48.17,0,74.57-21.78,88.25-40.05a110.37,110.37,0,0,0,18.43-39.74c.61.86,1.21,1.73,1.76,2.61"/></g><path class="cls-4" d="M473.92,225.86h0a110.37,110.37,0,0,1-18.43,39.74c-13.67,18.27-40.08,40.05-88.25,40.05-40.9,0-74.25-15.41-96.43-44.55a130.63,130.63,0,0,1-14.22-23.69c-4.35,15.06-8.75,30.83-12.45,44.09-7.85,28.17-16,57.31-23,79.3-3.95,12.34-7.28,21.57-10.18,28.24-3.11,7.17-9.6,22.1-25.3,23-.46,0-.91.05-1.37.05-9.44,0-17.86-5.85-21.69-15.18-9.32-22.67-18-82.57-28.76-165.41a140.36,140.36,0,0,1-10.66,20.94c-19.87,31.72-51,49-94.81,52.51V262c57.73-5.44,76.57-41.66,84-149.25a79.05,79.05,0,0,1,1.23-10.31c1.79-8.79,8.5-19.16,21.49-19.55,7.87-.23,17.75,3.92,22.19,16.28a73.29,73.29,0,0,1,2.38,8.79c1.2,5.48,2.54,13.25,4.13,23.76,2.89,19.1,6.29,45.52,9.9,73.5,4.36,33.87,10,77.3,15.55,113,4.79-16.44,9.62-33.75,13.65-48.25,7.84-28.08,15.24-54.62,21.74-75.07,3.66-11.48,6.72-20,9.37-26.14,2.74-6.37,10.07-23.26,27.65-21.72,5.9.52,19.86,4.12,22,26.42,1.74,17.68,6.84,42.74,21.24,61.67,14.17,18.6,34.56,27.65,62.34,27.65,24.44,0,42.59-7.7,53.95-22.86,8.71-11.61,12.89-27,13.68-41.68L458,211.63a51,51,0,0,1,15.89,14.23"/><path class="cls-2" d="M146.57,85.82a22,22,0,0,0-11.51-2.9c-13,.39-19.7,10.76-21.49,19.55a80.55,80.55,0,0,0-1.24,10.31c-7.4,107.59-26.24,143.81-84,149.25V187c46.55-3.64,62.8-5.28,69.54-103.34a77.09,77.09,0,0,1,1.24-10.31c1.79-8.79,8.49-19.16,21.49-19.55,7.86-.23,17.74,3.92,22.18,16.28a73.29,73.29,0,0,1,2.38,8.79c.44,2,.9,4.32,1.38,7"/><path class="cls-2" d="M269.23,144.34c.14,1.37.3,3.06.54,5a23.15,23.15,0,0,0-8.16-2.27c-17.58-1.54-24.9,15.35-27.65,21.72-2.65,6.1-5.71,14.66-9.36,26.14-6.51,20.45-13.91,47-21.75,75.07-4,14.51-8.86,31.81-13.65,48.25-5.59-35.69-11.19-79.12-15.55-113-.4-3.12-.81-6.24-1.2-9.31,13.57,3.47,34.14-13.55,47.08-56.3,2-6.63,10.07-23.26,27.65-21.72,5.9.52,19.87,4.12,22.05,26.42"/><path class="cls-2" d="M434.87,198.26c-.79,14.72-5,30.07-13.69,41.68-11.35,15.16-29.5,22.86-53.94,22.86-27.78,0-48.18-9.05-62.34-27.65-7.6-10-12.61-21.68-15.9-33.1,11.3,14.43,29.18,25.19,57.65,23.32,41.47-2.71,49.92-31.45,37.07-56.63Z"/><g class="cls-3"><path class="cls-4" d="M146.57,85.82a22,22,0,0,0-11.51-2.9c-13,.39-19.7,10.76-21.49,19.55a80.55,80.55,0,0,0-1.24,10.31c-7.4,107.59-26.24,143.81-84,149.25V187c46.55-3.64,62.8-5.28,69.54-103.34a77.09,77.09,0,0,1,1.24-10.31c1.79-8.79,8.49-19.16,21.49-19.55,7.86-.23,17.74,3.92,22.18,16.28a73.29,73.29,0,0,1,2.38,8.79c.44,2,.9,4.32,1.38,7"/><path class="cls-4" d="M269.77,149.33a23.15,23.15,0,0,0-8.16-2.27c-17.58-1.54-24.9,15.35-27.65,21.72-2.65,6.1-5.71,14.66-9.36,26.14-6.51,20.45-13.91,47-21.75,75.07-4,14.51-8.86,31.81-13.65,48.25-5.59-35.69-11.19-79.12-15.55-113-.4-3.12-.81-6.24-1.2-9.31,13.57,3.47,34.14-13.55,47.08-56.3,2-6.63,10.07-23.26,27.65-21.72,5.9.52,19.87,4.12,22.05,26.42.14,1.37.3,3.06.54,5"/><path class="cls-4" d="M434.87,198.26c-.79,14.72-5,30.07-13.69,41.68-11.35,15.16-29.5,22.86-53.94,22.86-27.78,0-48.18-9.05-62.34-27.65-7.6-10-12.61-21.68-15.9-33.1,11.3,14.43,29.18,25.19,57.65,23.32,41.47-2.71,49.92-31.45,37.07-56.63Z"/></g><rect class="cls-5" width="512" height="512"/></g></g></svg>